<svg viewBox="0 0 18 18" xmlns="http://www.w3.org/2000/svg" focusable="false" aria-hidden="true">
    <path fill="#EF2056" d="M15.9787121,2.02127123 L15.9784622,2.02127123 C14.8693371,0.978146076 13.3547117,0.386520892 11.6832113,0.16527085 C10.6189612,0.0241874903 9.72454437,-0.0290208518 8.9999609,0.00564582366 C8.27521078,-0.0290208518 7.38079397,0.0241874903 6.31671047,0.16527085 C4.64508522,0.386520892 3.13058496,0.978146076 2.02145982,2.02127123 L2.02120996,2.02127123 C0.978209734,3.1307714 0.386459604,4.64527166 0.165084571,6.31677198 C0.0240012109,7.38093885 -0.0291237986,8.27539714 0.00570954196,9.00014687 C-0.0291237986,9.72473033 0.0240012109,10.6191471 0.165084571,11.6833973 C0.386459604,13.3546475 0.978209734,14.8692729 2.02120996,15.9786482 L2.02145982,15.978898 C3.13058496,17.0218983 4.64508522,17.6136478 6.31671047,17.8351479 C7.38079397,17.9760645 8.27521078,18.029148 8.9999609,17.9943981 C9.72454437,18.029148 10.6189612,17.9760645 11.6832113,17.8351479 C13.3547117,17.6136478 14.8693371,17.0218983 15.9784622,15.978898 L15.9787121,15.9786482 C17.0220872,14.8692729 17.6134618,13.3546475 17.8350868,11.6833973 C17.9760035,10.6191471 18.0290869,9.72473033 17.9943371,9.00014687 C18.0290869,8.27539714 17.9760035,7.38093885 17.8350868,6.31677198 C17.6134618,4.64527166 17.0220872,3.1307714 15.9787121,2.02127123 Z"></path>
    <path fill="#FFFFFF" d="M13.7390957,5.38574219 C13.4320956,5.0919922 13.002095,4.88574219 12.1712198,4.88574219 L5.37696898,4.88574219 L5.37696898,4.90461719 C4.82634389,4.9613672 4.50371885,5.1437422 4.26171875,5.38574219 C3.96809375,5.6793673 3.76171875,6.09086728 3.76171875,6.88574219 L3.76171875,6.88574219 L3.76171875,10.8857422 L3.76171875,10.8857422 C3.76171875,11.6806183 3.96809375,12.0919936 4.26171875,12.3857422 C4.50371885,12.6277437 4.82634389,12.8101185 5.37696898,12.8668685 L5.37696898,12.8857422 L12.1712198,12.8857422 C13.002095,12.8857422 13.4320956,12.6793687 13.7390957,12.3857422 C14.0460957,12.0919936 14.2617188,11.6806183 14.2617188,10.8857422 L14.2617188,10.8857422 L14.2617188,6.88574219 C14.2617188,6.09086728 14.0460957,5.6793673 13.7390957,5.38574219 Z"></path>
    <path fill="#C10037" d="M7.01171875,8.88574255 C7.01171875,9.92124271 7.85121894,10.7607429 8.88671911,10.7607429 C9.92221928,10.7607429 10.7617195,9.92124271 10.7617195,8.88574255 C10.7617195,7.85024238 9.92221928,7.01074219 8.88671911,7.01074219 C7.85121894,7.01074219 7.01171875,7.85024238 7.01171875,8.88574255 Z"></path>
    <path fill="#ED2E53" d="M11.0117188,6.88574219 C11.0117188,7.43799239 11.4594688,7.88574219 12.0117188,7.88574219 C12.563969,7.88574219 13.0117188,7.43799239 13.0117188,6.88574219 C13.0117188,6.33349222 12.563969,5.88574219 12.0117188,5.88574219 C11.4594688,5.88574219 11.0117188,6.33349222 11.0117188,6.88574219 Z"></path>
</svg>