<svg xmlns="http://www.w3.org/2000/svg" viewBox="0 0 36 36" focusable="false" aria-hidden="true">
<g transform="translate(8.369 5.936)">
	<path d="M4.4,2.3c0.4-0.2,0.9-0.2,1.3,0.1h0.1L18.3,11c0.6,0.4,0.8,1.2,0.4,1.9
		c-0.1,0.1-0.2,0.2-0.3,0.3h-0.1L5.8,21.7C5.5,21.9,5.3,22,5,22c-0.2,0-0.4-0.1-0.6-0.1c-0.4-0.2-0.7-0.7-0.7-1.1V3.5
		C3.7,3,3.9,2.6,4.4,2.3L4.4,2.3L4.4,2.3z"/>
</g>
<path d="M18,2c8.8,0,16,7.2,16,16s-7.2,16-16,16S2,26.8,2,18S9.2,2,18,2 M18,0C8.1,0,0,8.1,0,18s8.1,18,18,18s18-8.1,18-18
	S27.9,0,18,0L18,0z"/>
</svg>
